<mxfile host="app.diagrams.net" agent="Mozilla/5.0 (Windows NT 10.0; Win64; x64) AppleWebKit/537.36 (KHTML, like Gecko) Chrome/133.0.0.0 Safari/537.36" version="26.1.0">
  <diagram name="Página-1" id="Ovwj9LCa1ErURSH7m9Ka">
    <mxGraphModel dx="880" dy="460" grid="1" gridSize="10" guides="1" tooltips="1" connect="1" arrows="1" fold="1" page="1" pageScale="1" pageWidth="827" pageHeight="1169" math="0" shadow="0">
      <root>
        <mxCell id="0" />
        <mxCell id="1" parent="0" />
        <mxCell id="bIgQTQQy6a-haY_SsW9a-1" value="BPMN MoveGo" style="swimlane;html=1;childLayout=stackLayout;resizeParent=1;resizeParentMax=0;horizontal=1;startSize=20;horizontalStack=0;whiteSpace=wrap;" parent="1" vertex="1">
          <mxGeometry x="10" y="70" width="810" height="380" as="geometry" />
        </mxCell>
        <mxCell id="bIgQTQQy6a-haY_SsW9a-2" value="Usuario" style="swimlane;html=1;startSize=20;horizontal=0;" parent="bIgQTQQy6a-haY_SsW9a-1" vertex="1">
          <mxGeometry y="20" width="810" height="120" as="geometry" />
        </mxCell>
        <mxCell id="bIgQTQQy6a-haY_SsW9a-5" value="Usuário acessa o app" style="points=[[0.145,0.145,0],[0.5,0,0],[0.855,0.145,0],[1,0.5,0],[0.855,0.855,0],[0.5,1,0],[0.145,0.855,0],[0,0.5,0]];shape=mxgraph.bpmn.event;html=1;verticalLabelPosition=bottom;labelBackgroundColor=#ffffff;verticalAlign=top;align=center;perimeter=ellipsePerimeter;outlineConnect=0;aspect=fixed;outline=standard;symbol=general;" parent="bIgQTQQy6a-haY_SsW9a-2" vertex="1">
          <mxGeometry x="60" y="10" width="50" height="50" as="geometry" />
        </mxCell>
        <mxCell id="bIgQTQQy6a-haY_SsW9a-6" value="Pesquisar rota ou linha de ônibus" style="points=[[0.25,0,0],[0.5,0,0],[0.75,0,0],[1,0.25,0],[1,0.5,0],[1,0.75,0],[0.75,1,0],[0.5,1,0],[0.25,1,0],[0,0.75,0],[0,0.5,0],[0,0.25,0]];shape=mxgraph.bpmn.task2;whiteSpace=wrap;rectStyle=rounded;size=10;html=1;container=1;expand=0;collapsible=0;taskMarker=abstract;" parent="bIgQTQQy6a-haY_SsW9a-2" vertex="1">
          <mxGeometry x="170" y="20" width="100" height="70" as="geometry" />
        </mxCell>
        <mxCell id="bIgQTQQy6a-haY_SsW9a-7" style="edgeStyle=orthogonalEdgeStyle;rounded=0;orthogonalLoop=1;jettySize=auto;html=1;exitX=1;exitY=0.5;exitDx=0;exitDy=0;exitPerimeter=0;entryX=0;entryY=0.5;entryDx=0;entryDy=0;entryPerimeter=0;" parent="bIgQTQQy6a-haY_SsW9a-2" source="bIgQTQQy6a-haY_SsW9a-5" target="bIgQTQQy6a-haY_SsW9a-6" edge="1">
          <mxGeometry relative="1" as="geometry" />
        </mxCell>
        <mxCell id="bIgQTQQy6a-haY_SsW9a-22" style="edgeStyle=orthogonalEdgeStyle;rounded=0;orthogonalLoop=1;jettySize=auto;html=1;exitX=0.75;exitY=0.75;exitDx=0;exitDy=0;exitPerimeter=0;" parent="bIgQTQQy6a-haY_SsW9a-2" source="bIgQTQQy6a-haY_SsW9a-17" target="bIgQTQQy6a-haY_SsW9a-19" edge="1">
          <mxGeometry relative="1" as="geometry" />
        </mxCell>
        <mxCell id="bIgQTQQy6a-haY_SsW9a-17" value="Usuário deseja receber&lt;div&gt;&amp;nbsp;alertas de atraso?&lt;/div&gt;" style="points=[[0.25,0.25,0],[0.5,0,0],[0.75,0.25,0],[1,0.5,0],[0.75,0.75,0],[0.5,1,0],[0.25,0.75,0],[0,0.5,0]];shape=mxgraph.bpmn.gateway2;html=1;verticalLabelPosition=bottom;labelBackgroundColor=#ffffff;verticalAlign=top;align=center;perimeter=rhombusPerimeter;outlineConnect=0;outline=none;symbol=none;" parent="bIgQTQQy6a-haY_SsW9a-2" vertex="1">
          <mxGeometry x="390" y="10" width="50" height="50" as="geometry" />
        </mxCell>
        <mxCell id="bIgQTQQy6a-haY_SsW9a-20" value="Não" style="text;html=1;align=center;verticalAlign=middle;resizable=0;points=[];autosize=1;strokeColor=none;fillColor=none;" parent="bIgQTQQy6a-haY_SsW9a-2" vertex="1">
          <mxGeometry x="470" width="50" height="30" as="geometry" />
        </mxCell>
        <mxCell id="bIgQTQQy6a-haY_SsW9a-19" value="Sim" style="text;html=1;align=center;verticalAlign=middle;resizable=0;points=[];autosize=1;strokeColor=none;fillColor=none;" parent="bIgQTQQy6a-haY_SsW9a-2" vertex="1">
          <mxGeometry x="480" y="40" width="40" height="30" as="geometry" />
        </mxCell>
        <mxCell id="bIgQTQQy6a-haY_SsW9a-21" style="edgeStyle=orthogonalEdgeStyle;rounded=0;orthogonalLoop=1;jettySize=auto;html=1;exitX=0.75;exitY=0.25;exitDx=0;exitDy=0;exitPerimeter=0;entryX=-0.064;entryY=0.4;entryDx=0;entryDy=0;entryPerimeter=0;" parent="bIgQTQQy6a-haY_SsW9a-2" source="bIgQTQQy6a-haY_SsW9a-17" target="bIgQTQQy6a-haY_SsW9a-20" edge="1">
          <mxGeometry relative="1" as="geometry" />
        </mxCell>
        <mxCell id="bIgQTQQy6a-haY_SsW9a-25" value="Acompanhar localização do ônibus" style="points=[[0.25,0,0],[0.5,0,0],[0.75,0,0],[1,0.25,0],[1,0.5,0],[1,0.75,0],[0.75,1,0],[0.5,1,0],[0.25,1,0],[0,0.75,0],[0,0.5,0],[0,0.25,0]];shape=mxgraph.bpmn.task2;whiteSpace=wrap;rectStyle=rounded;size=10;html=1;container=1;expand=0;collapsible=0;taskMarker=abstract;" parent="bIgQTQQy6a-haY_SsW9a-2" vertex="1">
          <mxGeometry x="550" y="10" width="90" height="70" as="geometry" />
        </mxCell>
        <mxCell id="bIgQTQQy6a-haY_SsW9a-26" style="edgeStyle=orthogonalEdgeStyle;rounded=0;orthogonalLoop=1;jettySize=auto;html=1;entryX=0;entryY=0.5;entryDx=0;entryDy=0;entryPerimeter=0;" parent="bIgQTQQy6a-haY_SsW9a-2" source="bIgQTQQy6a-haY_SsW9a-20" target="bIgQTQQy6a-haY_SsW9a-25" edge="1">
          <mxGeometry relative="1" as="geometry" />
        </mxCell>
        <mxCell id="bIgQTQQy6a-haY_SsW9a-28" value="Encerrar&amp;nbsp;&lt;div&gt;acompanhamento&lt;/div&gt;" style="points=[[0.145,0.145,0],[0.5,0,0],[0.855,0.145,0],[1,0.5,0],[0.855,0.855,0],[0.5,1,0],[0.145,0.855,0],[0,0.5,0]];shape=mxgraph.bpmn.event;html=1;verticalLabelPosition=bottom;labelBackgroundColor=#ffffff;verticalAlign=top;align=center;perimeter=ellipsePerimeter;outlineConnect=0;aspect=fixed;outline=end;symbol=terminate;" parent="bIgQTQQy6a-haY_SsW9a-2" vertex="1">
          <mxGeometry x="730" y="20" width="50" height="50" as="geometry" />
        </mxCell>
        <mxCell id="bIgQTQQy6a-haY_SsW9a-29" style="edgeStyle=orthogonalEdgeStyle;rounded=0;orthogonalLoop=1;jettySize=auto;html=1;exitX=1;exitY=0.5;exitDx=0;exitDy=0;exitPerimeter=0;entryX=0;entryY=0.5;entryDx=0;entryDy=0;entryPerimeter=0;" parent="bIgQTQQy6a-haY_SsW9a-2" source="bIgQTQQy6a-haY_SsW9a-25" target="bIgQTQQy6a-haY_SsW9a-28" edge="1">
          <mxGeometry relative="1" as="geometry" />
        </mxCell>
        <mxCell id="bIgQTQQy6a-haY_SsW9a-3" value="Sistema" style="swimlane;html=1;startSize=20;horizontal=0;" parent="bIgQTQQy6a-haY_SsW9a-1" vertex="1">
          <mxGeometry y="140" width="810" height="120" as="geometry" />
        </mxCell>
        <mxCell id="bIgQTQQy6a-haY_SsW9a-8" value="Consultar horários e localização em tempo real" style="points=[[0.25,0,0],[0.5,0,0],[0.75,0,0],[1,0.25,0],[1,0.5,0],[1,0.75,0],[0.75,1,0],[0.5,1,0],[0.25,1,0],[0,0.75,0],[0,0.5,0],[0,0.25,0]];shape=mxgraph.bpmn.task2;whiteSpace=wrap;rectStyle=rounded;size=10;html=1;container=1;expand=0;collapsible=0;taskMarker=abstract;" parent="bIgQTQQy6a-haY_SsW9a-3" vertex="1">
          <mxGeometry x="170" y="20" width="100" height="70" as="geometry" />
        </mxCell>
        <mxCell id="bIgQTQQy6a-haY_SsW9a-12" value="Exibir informações na tela do usuário" style="points=[[0.25,0,0],[0.5,0,0],[0.75,0,0],[1,0.25,0],[1,0.5,0],[1,0.75,0],[0.75,1,0],[0.5,1,0],[0.25,1,0],[0,0.75,0],[0,0.5,0],[0,0.25,0]];shape=mxgraph.bpmn.task2;whiteSpace=wrap;rectStyle=rounded;size=10;html=1;container=1;expand=0;collapsible=0;taskMarker=abstract;" parent="bIgQTQQy6a-haY_SsW9a-3" vertex="1">
          <mxGeometry x="300" y="20" width="100" height="70" as="geometry" />
        </mxCell>
        <mxCell id="bIgQTQQy6a-haY_SsW9a-23" value="Enviar notificações de atraso" style="points=[[0.25,0,0],[0.5,0,0],[0.75,0,0],[1,0.25,0],[1,0.5,0],[1,0.75,0],[0.75,1,0],[0.5,1,0],[0.25,1,0],[0,0.75,0],[0,0.5,0],[0,0.25,0]];shape=mxgraph.bpmn.task2;whiteSpace=wrap;rectStyle=rounded;size=10;html=1;container=1;expand=0;collapsible=0;taskMarker=abstract;" parent="bIgQTQQy6a-haY_SsW9a-3" vertex="1">
          <mxGeometry x="480" y="20" width="100" height="70" as="geometry" />
        </mxCell>
        <mxCell id="bIgQTQQy6a-haY_SsW9a-4" value="Banco de dados&amp;nbsp;" style="swimlane;html=1;startSize=20;horizontal=0;" parent="bIgQTQQy6a-haY_SsW9a-1" vertex="1">
          <mxGeometry y="260" width="810" height="120" as="geometry" />
        </mxCell>
        <mxCell id="bIgQTQQy6a-haY_SsW9a-10" value="Retornar horários e localização do ônibus" style="points=[[0.25,0,0],[0.5,0,0],[0.75,0,0],[1,0.25,0],[1,0.5,0],[1,0.75,0],[0.75,1,0],[0.5,1,0],[0.25,1,0],[0,0.75,0],[0,0.5,0],[0,0.25,0]];shape=mxgraph.bpmn.task2;whiteSpace=wrap;rectStyle=rounded;size=10;html=1;container=1;expand=0;collapsible=0;taskMarker=abstract;" parent="bIgQTQQy6a-haY_SsW9a-4" vertex="1">
          <mxGeometry x="190" y="20" width="100" height="70" as="geometry" />
        </mxCell>
        <mxCell id="bIgQTQQy6a-haY_SsW9a-13" style="edgeStyle=orthogonalEdgeStyle;rounded=0;orthogonalLoop=1;jettySize=auto;html=1;exitX=0.5;exitY=1;exitDx=0;exitDy=0;exitPerimeter=0;" parent="bIgQTQQy6a-haY_SsW9a-1" source="bIgQTQQy6a-haY_SsW9a-6" target="bIgQTQQy6a-haY_SsW9a-8" edge="1">
          <mxGeometry relative="1" as="geometry" />
        </mxCell>
        <mxCell id="bIgQTQQy6a-haY_SsW9a-14" style="edgeStyle=orthogonalEdgeStyle;rounded=0;orthogonalLoop=1;jettySize=auto;html=1;exitX=0.5;exitY=1;exitDx=0;exitDy=0;exitPerimeter=0;" parent="bIgQTQQy6a-haY_SsW9a-1" source="bIgQTQQy6a-haY_SsW9a-8" target="bIgQTQQy6a-haY_SsW9a-10" edge="1">
          <mxGeometry relative="1" as="geometry">
            <Array as="points">
              <mxPoint x="220" y="270" />
              <mxPoint x="240" y="270" />
            </Array>
          </mxGeometry>
        </mxCell>
        <mxCell id="bIgQTQQy6a-haY_SsW9a-16" style="edgeStyle=orthogonalEdgeStyle;rounded=0;orthogonalLoop=1;jettySize=auto;html=1;exitX=0.75;exitY=0;exitDx=0;exitDy=0;exitPerimeter=0;entryX=0.25;entryY=1;entryDx=0;entryDy=0;entryPerimeter=0;" parent="bIgQTQQy6a-haY_SsW9a-1" source="bIgQTQQy6a-haY_SsW9a-10" target="bIgQTQQy6a-haY_SsW9a-12" edge="1">
          <mxGeometry relative="1" as="geometry" />
        </mxCell>
        <mxCell id="bIgQTQQy6a-haY_SsW9a-18" style="edgeStyle=orthogonalEdgeStyle;rounded=0;orthogonalLoop=1;jettySize=auto;html=1;exitX=0.5;exitY=0;exitDx=0;exitDy=0;exitPerimeter=0;" parent="bIgQTQQy6a-haY_SsW9a-1" source="bIgQTQQy6a-haY_SsW9a-12" target="bIgQTQQy6a-haY_SsW9a-17" edge="1">
          <mxGeometry relative="1" as="geometry">
            <Array as="points">
              <mxPoint x="350" y="55" />
            </Array>
          </mxGeometry>
        </mxCell>
        <mxCell id="bIgQTQQy6a-haY_SsW9a-24" style="edgeStyle=orthogonalEdgeStyle;rounded=0;orthogonalLoop=1;jettySize=auto;html=1;entryX=0.5;entryY=0;entryDx=0;entryDy=0;entryPerimeter=0;" parent="bIgQTQQy6a-haY_SsW9a-1" source="bIgQTQQy6a-haY_SsW9a-19" target="bIgQTQQy6a-haY_SsW9a-23" edge="1">
          <mxGeometry relative="1" as="geometry" />
        </mxCell>
        <mxCell id="bIgQTQQy6a-haY_SsW9a-27" style="edgeStyle=orthogonalEdgeStyle;rounded=0;orthogonalLoop=1;jettySize=auto;html=1;exitX=0.75;exitY=0;exitDx=0;exitDy=0;exitPerimeter=0;entryX=0.5;entryY=1;entryDx=0;entryDy=0;entryPerimeter=0;" parent="bIgQTQQy6a-haY_SsW9a-1" source="bIgQTQQy6a-haY_SsW9a-23" target="bIgQTQQy6a-haY_SsW9a-25" edge="1">
          <mxGeometry relative="1" as="geometry" />
        </mxCell>
      </root>
    </mxGraphModel>
  </diagram>
</mxfile>
